<?xml version="1.0" encoding="UTF-8"?>
<!DOCTYPE svg PUBLIC "-//W3C//DTD SVG 1.1//EN"
 "http://www.w3.org/Graphics/SVG/1.1/DTD/svg11.dtd">
<svg xmlns="http://www.w3.org/2000/svg" version="1.1"
     width="180mm" height="25mm" viewBox="0 0 100 1" stroke="none"
     preserveAspectRatio="none" shape-rendering="crispEdges">
<defs>
    <pattern id="pat_WnBtk" width=".2" height=".2"
             patternUnits="userSpaceOnUse" patternTransform="scale(13.889,1)" >
        <path d="M.1,0h.1v.1h-.2v.1h.1z" fill="#999" opacity=".5" />
    </pattern>
</defs>
<rect width="100" height="1" fill="url(#pat_WnBtk)" />
<path d="M1,.46V1h-1V.54z" fill="#BDE7DB" />
<path d="M0,0h1v1h-1z" fill="#BDE7DB" fill-opacity="1" />
<path d="M2,.46V1h-1V.54z" fill="#B6E1D9" />
<path d="M1,0h1v1h-1z" fill="#B6E1D9" fill-opacity="1" />
<path d="M3,.46V1h-1V.54z" fill="#AFDCD7" />
<path d="M2,0h1v1h-1z" fill="#AFDCD7" fill-opacity="1" />
<path d="M4,.46V1h-1V.54z" fill="#A8D7D5" />
<path d="M3,0h1v1h-1z" fill="#A8D7D5" fill-opacity="1" />
<path d="M5,.46V1h-1V.54z" fill="#A0D2D4" />
<path d="M4,0h1v1h-1z" fill="#A0D2D4" fill-opacity="1" />
<path d="M6,.46V1h-1V.54z" fill="#99CED2" />
<path d="M5,0h1v1h-1z" fill="#99CED2" fill-opacity="1" />
<path d="M7,.46V1h-1V.54z" fill="#92C9D1" />
<path d="M6,0h1v1h-1z" fill="#92C9D1" fill-opacity="1" />
<path d="M8,.46V1h-1V.54z" fill="#8AC4D0" />
<path d="M7,0h1v1h-1z" fill="#8AC4D0" fill-opacity="1" />
<path d="M9,.46V1h-1V.54z" fill="#82C0CF" />
<path d="M8,0h1v1h-1z" fill="#82C0CF" fill-opacity="1" />
<path d="M10,.46V1h-1V.54z" fill="#7BBBCE" />
<path d="M9,0h1v1h-1z" fill="#7BBBCE" fill-opacity="1" />
<path d="M11,.46V1h-1V.54z" fill="#73B7CE" />
<path d="M10,0h1v1h-1z" fill="#73B7CE" fill-opacity="1" />
<path d="M12,.46V1h-1V.54z" fill="#6BB2CD" />
<path d="M11,0h1v1h-1z" fill="#6BB2CD" fill-opacity="1" />
<path d="M13,.46V1h-1V.54z" fill="#63ADCD" />
<path d="M12,0h1v1h-1z" fill="#63ADCD" fill-opacity="1" />
<path d="M14,.46V1h-1V.54z" fill="#5CA9CD" />
<path d="M13,0h1v1h-1z" fill="#5CA9CD" fill-opacity="1" />
<path d="M15,.46V1h-1V.54z" fill="#55A4CD" />
<path d="M14,0h1v1h-1z" fill="#55A4CD" fill-opacity="1" />
<path d="M16,.46V1h-1V.54z" fill="#4F9FCD" />
<path d="M15,0h1v1h-1z" fill="#4F9FCD" fill-opacity="1" />
<path d="M17,.46V1h-1V.54z" fill="#499ACE" />
<path d="M16,0h1v1h-1z" fill="#499ACE" fill-opacity="1" />
<path d="M18,.46V1h-1V.54z" fill="#4495CE" />
<path d="M17,0h1v1h-1z" fill="#4495CE" fill-opacity="1" />
<path d="M19,.46V1h-1V.54z" fill="#3F8FCE" />
<path d="M18,0h1v1h-1z" fill="#3F8FCE" fill-opacity="1" />
<path d="M20,.46V1h-1V.54z" fill="#3B8ACF" />
<path d="M19,0h1v1h-1z" fill="#3B8ACF" fill-opacity="1" />
<path d="M21,.46V1h-1V.54z" fill="#3885D0" />
<path d="M20,0h1v1h-1z" fill="#3885D0" fill-opacity="1" />
<path d="M22,.46V1h-1V.54z" fill="#377FD0" />
<path d="M21,0h1v1h-1z" fill="#377FD0" fill-opacity="1" />
<path d="M23,.46V1h-1V.54z" fill="#3779D0" />
<path d="M22,0h1v1h-1z" fill="#3779D0" fill-opacity="1" />
<path d="M24,.46V1h-1V.54z" fill="#3A73CE" />
<path d="M23,0h1v1h-1z" fill="#3A73CE" fill-opacity="1" />
<path d="M25,.46V1h-1V.54z" fill="#3D6DCB" />
<path d="M24,0h1v1h-1z" fill="#3D6DCB" fill-opacity="1" />
<path d="M26,.46V1h-1V.54z" fill="#4167C7" />
<path d="M25,0h1v1h-1z" fill="#4167C7" fill-opacity="1" />
<path d="M27,.46V1h-1V.54z" fill="#4461C2" />
<path d="M26,0h1v1h-1z" fill="#4461C2" fill-opacity="1" />
<path d="M28,.46V1h-1V.54z" fill="#475CBB" />
<path d="M27,0h1v1h-1z" fill="#475CBB" fill-opacity="1" />
<path d="M29,.46V1h-1V.54z" fill="#4956B4" />
<path d="M28,0h1v1h-1z" fill="#4956B4" fill-opacity="1" />
<path d="M30,.46V1h-1V.54z" fill="#4A52AB" />
<path d="M29,0h1v1h-1z" fill="#4A52AB" fill-opacity="1" />
<path d="M31,.46V1h-1V.54z" fill="#494DA2" />
<path d="M30,0h1v1h-1z" fill="#494DA2" fill-opacity="1" />
<path d="M32,.46V1h-1V.54z" fill="#484A98" />
<path d="M31,0h1v1h-1z" fill="#484A98" fill-opacity="1" />
<path d="M33,.46V1h-1V.54z" fill="#47468E" />
<path d="M32,0h1v1h-1z" fill="#47468E" fill-opacity="1" />
<path d="M34,.46V1h-1V.54z" fill="#444384" />
<path d="M33,0h1v1h-1z" fill="#444384" fill-opacity="1" />
<path d="M35,.46V1h-1V.54z" fill="#42407A" />
<path d="M34,0h1v1h-1z" fill="#42407A" fill-opacity="1" />
<path d="M36,.46V1h-1V.54z" fill="#3F3C71" />
<path d="M35,0h1v1h-1z" fill="#3F3C71" fill-opacity="1" />
<path d="M37,.46V1h-1V.54z" fill="#3C3968" />
<path d="M36,0h1v1h-1z" fill="#3C3968" fill-opacity="1" />
<path d="M38,.46V1h-1V.54z" fill="#383660" />
<path d="M37,0h1v1h-1z" fill="#383660" fill-opacity="1" />
<path d="M39,.46V1h-1V.54z" fill="#353358" />
<path d="M38,0h1v1h-1z" fill="#353358" fill-opacity="1" />
<path d="M40,.46V1h-1V.54z" fill="#323050" />
<path d="M39,0h1v1h-1z" fill="#323050" fill-opacity="1" />
<path d="M41,.46V1h-1V.54z" fill="#2F2E49" />
<path d="M40,0h1v1h-1z" fill="#2F2E49" fill-opacity="1" />
<path d="M42,.46V1h-1V.54z" fill="#2C2B42" />
<path d="M41,0h1v1h-1z" fill="#2C2B42" fill-opacity="1" />
<path d="M43,.46V1h-1V.54z" fill="#29283C" />
<path d="M42,0h1v1h-1z" fill="#29283C" fill-opacity="1" />
<path d="M44,.46V1h-1V.54z" fill="#272636" />
<path d="M43,0h1v1h-1z" fill="#272636" fill-opacity="1" />
<path d="M45,.46V1h-1V.54z" fill="#252431" />
<path d="M44,0h1v1h-1z" fill="#252431" fill-opacity="1" />
<path d="M46,.46V1h-1V.54z" fill="#23222C" />
<path d="M45,0h1v1h-1z" fill="#23222C" fill-opacity="1" />
<path d="M47,.46V1h-1V.54z" fill="#212128" />
<path d="M46,0h1v1h-1z" fill="#212128" fill-opacity="1" />
<path d="M48,.46V1h-1V.54z" fill="#201F24" />
<path d="M47,0h1v1h-1z" fill="#201F24" fill-opacity="1" />
<path d="M49,.46V1h-1V.54z" fill="#1F1F21" />
<path d="M48,0h1v1h-1z" fill="#1F1F21" fill-opacity="1" />
<path d="M50,.46V1h-1V.54z" fill="#1F1E1F" />
<path d="M49,0h1v1h-1z" fill="#1F1E1F" fill-opacity="1" />
<path d="M51,.46V1h-1V.54z" fill="#211E1E" />
<path d="M50,0h1v1h-1z" fill="#211E1E" fill-opacity="1" />
<path d="M52,.46V1h-1V.54z" fill="#231E1E" />
<path d="M51,0h1v1h-1z" fill="#231E1E" fill-opacity="1" />
<path d="M53,.46V1h-1V.54z" fill="#271E1F" />
<path d="M52,0h1v1h-1z" fill="#271E1F" fill-opacity="1" />
<path d="M54,.46V1h-1V.54z" fill="#2A1E20" />
<path d="M53,0h1v1h-1z" fill="#2A1E20" fill-opacity="1" />
<path d="M55,.46V1h-1V.54z" fill="#2F1F22" />
<path d="M54,0h1v1h-1z" fill="#2F1F22" fill-opacity="1" />
<path d="M56,.46V1h-1V.54z" fill="#332024" />
<path d="M55,0h1v1h-1z" fill="#332024" fill-opacity="1" />
<path d="M57,.46V1h-1V.54z" fill="#382126" />
<path d="M56,0h1v1h-1z" fill="#382126" fill-opacity="1" />
<path d="M58,.46V1h-1V.54z" fill="#3E2228" />
<path d="M57,0h1v1h-1z" fill="#3E2228" fill-opacity="1" />
<path d="M59,.46V1h-1V.54z" fill="#43232A" />
<path d="M58,0h1v1h-1z" fill="#43232A" fill-opacity="1" />
<path d="M60,.46V1h-1V.54z" fill="#49252D" />
<path d="M59,0h1v1h-1z" fill="#49252D" fill-opacity="1" />
<path d="M61,.46V1h-1V.54z" fill="#502630" />
<path d="M60,0h1v1h-1z" fill="#502630" fill-opacity="1" />
<path d="M62,.46V1h-1V.54z" fill="#562732" />
<path d="M61,0h1v1h-1z" fill="#562732" fill-opacity="1" />
<path d="M63,.46V1h-1V.54z" fill="#5D2935" />
<path d="M62,0h1v1h-1z" fill="#5D2935" fill-opacity="1" />
<path d="M64,.46V1h-1V.54z" fill="#642A38" />
<path d="M63,0h1v1h-1z" fill="#642A38" fill-opacity="1" />
<path d="M65,.46V1h-1V.54z" fill="#6B2B3A" />
<path d="M64,0h1v1h-1z" fill="#6B2B3A" fill-opacity="1" />
<path d="M66,.46V1h-1V.54z" fill="#722C3D" />
<path d="M65,0h1v1h-1z" fill="#722C3D" fill-opacity="1" />
<path d="M67,.46V1h-1V.54z" fill="#792C3F" />
<path d="M66,0h1v1h-1z" fill="#792C3F" fill-opacity="1" />
<path d="M68,.46V1h-1V.54z" fill="#812D41" />
<path d="M67,0h1v1h-1z" fill="#812D41" fill-opacity="1" />
<path d="M69,.46V1h-1V.54z" fill="#892E43" />
<path d="M68,0h1v1h-1z" fill="#892E43" fill-opacity="1" />
<path d="M70,.46V1h-1V.54z" fill="#912E44" />
<path d="M69,0h1v1h-1z" fill="#912E44" fill-opacity="1" />
<path d="M71,.46V1h-1V.54z" fill="#982E44" />
<path d="M70,0h1v1h-1z" fill="#982E44" fill-opacity="1" />
<path d="M72,.46V1h-1V.54z" fill="#A02F44" />
<path d="M71,0h1v1h-1z" fill="#A02F44" fill-opacity="1" />
<path d="M73,.46V1h-1V.54z" fill="#A83044" />
<path d="M72,0h1v1h-1z" fill="#A83044" fill-opacity="1" />
<path d="M74,.46V1h-1V.54z" fill="#AF3142" />
<path d="M73,0h1v1h-1z" fill="#AF3142" fill-opacity="1" />
<path d="M75,.46V1h-1V.54z" fill="#B63441" />
<path d="M74,0h1v1h-1z" fill="#B63441" fill-opacity="1" />
<path d="M76,.46V1h-1V.54z" fill="#BC373F" />
<path d="M75,0h1v1h-1z" fill="#BC373F" fill-opacity="1" />
<path d="M77,.46V1h-1V.54z" fill="#C33A3C" />
<path d="M76,0h1v1h-1z" fill="#C33A3C" fill-opacity="1" />
<path d="M78,.46V1h-1V.54z" fill="#C93E3A" />
<path d="M77,0h1v1h-1z" fill="#C93E3A" fill-opacity="1" />
<path d="M79,.46V1h-1V.54z" fill="#CE4338" />
<path d="M78,0h1v1h-1z" fill="#CE4338" fill-opacity="1" />
<path d="M80,.46V1h-1V.54z" fill="#D34936" />
<path d="M79,0h1v1h-1z" fill="#D34936" fill-opacity="1" />
<path d="M81,.46V1h-1V.54z" fill="#D84E35" />
<path d="M80,0h1v1h-1z" fill="#D84E35" fill-opacity="1" />
<path d="M82,.46V1h-1V.54z" fill="#DC5534" />
<path d="M81,0h1v1h-1z" fill="#DC5534" fill-opacity="1" />
<path d="M83,.46V1h-1V.54z" fill="#E05B33" />
<path d="M82,0h1v1h-1z" fill="#E05B33" fill-opacity="1" />
<path d="M84,.46V1h-1V.54z" fill="#E36233" />
<path d="M83,0h1v1h-1z" fill="#E36233" fill-opacity="1" />
<path d="M85,.46V1h-1V.54z" fill="#E76934" />
<path d="M84,0h1v1h-1z" fill="#E76934" fill-opacity="1" />
<path d="M86,.46V1h-1V.54z" fill="#E97037" />
<path d="M85,0h1v1h-1z" fill="#E97037" fill-opacity="1" />
<path d="M87,.46V1h-1V.54z" fill="#EC773B" />
<path d="M86,0h1v1h-1z" fill="#EC773B" fill-opacity="1" />
<path d="M88,.46V1h-1V.54z" fill="#EE7F41" />
<path d="M87,0h1v1h-1z" fill="#EE7F41" fill-opacity="1" />
<path d="M89,.46V1h-1V.54z" fill="#EF8647" />
<path d="M88,0h1v1h-1z" fill="#EF8647" fill-opacity="1" />
<path d="M90,.46V1h-1V.54z" fill="#F18D4F" />
<path d="M89,0h1v1h-1z" fill="#F18D4F" fill-opacity="1" />
<path d="M91,.46V1h-1V.54z" fill="#F29558" />
<path d="M90,0h1v1h-1z" fill="#F29558" fill-opacity="1" />
<path d="M92,.46V1h-1V.54z" fill="#F49C61" />
<path d="M91,0h1v1h-1z" fill="#F49C61" fill-opacity="1" />
<path d="M93,.46V1h-1V.54z" fill="#F5A36A" />
<path d="M92,0h1v1h-1z" fill="#F5A36A" fill-opacity="1" />
<path d="M94,.46V1h-1V.54z" fill="#F7AA73" />
<path d="M93,0h1v1h-1z" fill="#F7AA73" fill-opacity="1" />
<path d="M95,.46V1h-1V.54z" fill="#F8B17D" />
<path d="M94,0h1v1h-1z" fill="#F8B17D" fill-opacity="1" />
<path d="M96,.46V1h-1V.54z" fill="#F9B886" />
<path d="M95,0h1v1h-1z" fill="#F9B886" fill-opacity="1" />
<path d="M97,.46V1h-1V.54z" fill="#FBBF90" />
<path d="M96,0h1v1h-1z" fill="#FBBF90" fill-opacity="1" />
<path d="M98,.46V1h-1V.54z" fill="#FCC699" />
<path d="M97,0h1v1h-1z" fill="#FCC699" fill-opacity="1" />
<path d="M99,.46V1h-1V.54z" fill="#FECDA3" />
<path d="M98,0h1v1h-1z" fill="#FECDA3" fill-opacity="1" />
<path d="M100,.46V1h-1V.54z" fill="#FFD4AC" />
<path d="M99,0h1v1h-1z" fill="#FFD4AC" fill-opacity="1" />
</svg>